# Blender 4.2.3 LTS
# www.blender.org
mtllib rpghead.mtl
o Plane
v -0.234204 -0.234204 -0.000000
v 0.234204 -0.234204 -0.000000
v -0.234204 0.234204 0.000000
v 0.234204 0.234204 0.000000
v -0.214432 0.214432 -0.192596
v -0.214432 -0.214432 -0.192596
v 0.214432 -0.214432 -0.192596
v 0.214432 0.214432 -0.192596
v -0.395236 0.395236 -0.192596
v -0.395236 -0.395236 -0.192596
v 0.395236 -0.395236 -0.192596
v 0.395236 0.395236 -0.192596
v -0.214432 0.214432 -1.382948
v -0.214432 -0.214432 -1.382948
v 0.214432 -0.214432 -1.382948
v 0.214432 0.214432 -1.382948
v -0.214432 0.214432 -1.382948
v -0.214432 -0.214432 -1.382948
v 0.214432 -0.214432 -1.382948
v 0.214432 0.214432 -1.382948
v -0.279595 0.279595 -1.382948
v -0.279595 -0.279595 -1.382948
v 0.279595 -0.279595 -1.382948
v 0.279595 0.279595 -1.382948
v -0.279595 0.279595 -1.584885
v -0.279595 -0.279595 -1.584885
v 0.279595 -0.279595 -1.584885
v 0.279595 0.279595 -1.584885
v -0.395236 0.395236 0.000000
v -0.395236 -0.395236 -0.000000
v 0.395236 -0.395236 -0.000000
v 0.395236 0.395236 0.000000
v -0.301267 0.301267 1.197787
v -0.301267 -0.301267 1.197787
v 0.301267 -0.301267 1.197787
v 0.301267 0.301267 1.197787
v -0.153231 0.153231 3.134703
v -0.153231 -0.153231 3.134703
v 0.153231 -0.153231 3.134703
v 0.153231 0.153231 3.134703
vn -0.9984 -0.0000 0.0559
vn -0.0000 -1.0000 -0.0000
vn -1.0000 -0.0000 -0.0000
vn 1.0000 -0.0000 -0.0000
vn -0.0000 1.0000 -0.0000
vn -0.0000 -0.0000 1.0000
vn -0.0000 -0.0000 -1.0000
vn -0.0000 -0.9971 -0.0762
vn 0.9984 -0.0000 0.0559
vn -0.0000 -0.9984 0.0559
vn -0.0000 0.9984 0.0559
vn -0.0000 0.9971 -0.0762
vn -0.9971 -0.0000 -0.0762
vn 0.9971 -0.0000 -0.0762
vt 0.796283 0.796283
vt 0.796283 0.203717
vt 0.771271 0.771271
vt 0.228729 0.771271
vt 1.000000 0.000000
vt 1.000000 1.000000
vt 0.000000 1.000000
vt 0.000000 0.000000
vt 0.228729 0.228729
vt 0.771271 0.228729
vt 0.203717 0.796283
vt 0.203717 0.203717
s 0
f 4/1/1 2/2/1 35/2/1 36/1/1
f 8/3/2 5/4/2 13/4/2 16/3/2
f 31/5/3 32/6/3 12/6/3 11/5/3
f 29/7/4 30/8/4 10/8/4 9/7/4
f 32/6/2 29/7/2 9/7/2 12/6/2
f 30/8/5 31/5/5 11/5/5 10/8/5
f 6/9/6 5/4/6 9/7/6 10/8/6
f 7/10/6 6/9/6 10/8/6 11/5/6
f 8/3/6 7/10/6 11/5/6 12/6/6
f 5/4/6 8/3/6 12/6/6 9/7/6
f 13/4/6 14/9/6 18/9/6 17/4/6
f 6/9/5 7/10/5 15/10/5 14/9/5
f 7/10/3 8/3/3 16/3/3 15/10/3
f 5/4/4 6/9/4 14/9/4 13/4/4
f 16/3/6 13/4/6 17/4/6 20/3/6
f 14/9/6 15/10/6 19/10/6 18/9/6
f 15/10/6 16/3/6 20/3/6 19/10/6
f 22/9/7 21/4/7 24/3/7 23/10/7
f 26/9/6 27/10/6 28/3/6 25/4/6
f 24/3/2 21/4/2 25/4/2 28/3/2
f 22/9/5 23/10/5 27/10/5 26/9/5
f 23/10/3 24/3/3 28/3/3 27/10/3
f 21/4/4 22/9/4 26/9/4 25/4/4
f 3/11/7 1/12/7 30/8/7 29/7/7
f 1/12/7 2/2/7 31/5/7 30/8/7
f 2/2/7 4/1/7 32/6/7 31/5/7
f 4/1/7 3/11/7 29/7/7 32/6/7
f 33/11/8 36/1/8 40/1/8 37/11/8
f 1/12/9 3/11/9 33/11/9 34/12/9
f 3/11/10 4/1/10 36/1/10 33/11/10
f 2/2/11 1/12/11 34/12/11 35/2/11
f 38/12/7 37/11/7 40/1/7 39/2/7
f 35/2/12 34/12/12 38/12/12 39/2/12
f 36/1/13 35/2/13 39/2/13 40/1/13
f 34/12/14 33/11/14 37/11/14 38/12/14
